<?xml version="1.0" standalone="no"?>
<!DOCTYPE svg PUBLIC "-//W3C//DTD SVG 20010904//EN"
 "http://www.w3.org/TR/2001/REC-SVG-20010904/DTD/svg10.dtd">
<svg version="1.0" xmlns="http://www.w3.org/2000/svg"
 width="1080.000000pt" height="1080.000000pt" viewBox="0 0 1080.000000 1080.000000"
 preserveAspectRatio="xMidYMid meet">
<metadata>
Created by potrace 1.14, written by Peter Selinger 2001-2017
</metadata>
<g transform="translate(0.000000,1080.000000) scale(0.100000,-0.100000)"
fill="#000000" stroke="none">
<path d="M0 5400 l0 -5400 5400 0 5400 0 0 5400 0 5400 -5400 0 -5400 0 0
-5400z m3843 1921 c108 -28 196 -74 262 -135 l55 -51 -81 -110 c-46 -63 -89
-111 -100 -113 -11 -2 -37 12 -61 33 -121 103 -345 143 -500 90 -117 -41 -162
-167 -95 -266 35 -52 111 -83 303 -123 275 -58 377 -99 469 -191 89 -90 126
-193 126 -351 0 -155 -36 -255 -128 -355 -66 -71 -179 -131 -293 -155 -102
-22 -319 -21 -425 1 -166 35 -318 115 -408 214 -71 79 -71 76 30 198 49 59 98
109 109 111 12 2 29 -11 49 -36 110 -143 300 -224 487 -209 165 14 255 116
227 260 -20 109 -71 138 -354 207 -249 60 -343 100 -427 184 -91 89 -127 186
-128 339 0 95 22 178 64 245 61 97 189 182 321 216 93 23 110 24 270 21 112
-2 170 -8 228 -24z m-1408 -636 c121 -352 255 -740 298 -863 l76 -222 -180 2
-181 3 -65 198 -64 197 -329 0 -328 0 -67 -200 -67 -200 -174 0 c-96 0 -174 2
-174 3 0 8 589 1707 595 1717 4 7 78 9 222 8 l217 -3 221 -640z m3255 500 l0
-145 -405 0 -405 0 0 -200 0 -200 353 -2 352 -3 3 -137 3 -138 -353 -2 -353
-3 -3 -232 -2 -233 412 -2 413 -3 3 -142 3 -143 -586 0 -585 0 0 865 0 865
575 0 575 0 0 -145z m678 -212 c2 -328 3 -353 20 -352 10 0 134 143 306 355
l288 354 174 0 c159 0 174 -1 174 -17 0 -10 -142 -193 -315 -406 -173 -214
-315 -392 -315 -396 0 -3 157 -204 350 -446 192 -242 350 -446 350 -452 0 -10
-46 -13 -197 -12 l-198 0 -299 370 c-199 245 -305 369 -317 369 -18 0 -19 -16
-19 -370 l0 -370 -175 0 -175 0 0 858 c0 472 3 862 7 866 4 3 81 5 172 4 l166
-3 3 -352z m2087 347 c6 -9 595 -1709 595 -1717 0 -2 -81 -3 -180 -3 l-179 0
-64 198 -63 197 -331 3 -330 2 -64 -197 -65 -198 -177 -3 -176 -2 88 257 c165
480 492 1425 501 1449 l10 24 214 0 c132 0 217 -4 221 -10z m-5992 -2269 c108
-28 196 -74 262 -135 l55 -51 -81 -110 c-46 -63 -89 -111 -100 -113 -11 -2
-37 12 -61 33 -121 103 -345 143 -500 90 -117 -41 -162 -167 -95 -266 35 -52
111 -83 303 -123 275 -58 377 -99 469 -191 89 -90 126 -193 126 -351 0 -155
-36 -255 -128 -355 -66 -71 -179 -131 -293 -155 -102 -22 -319 -21 -425 1
-166 35 -318 115 -408 214 -71 79 -71 76 30 198 49 59 98 109 109 111 12 2 29
-11 49 -36 110 -143 300 -224 487 -209 165 14 255 116 227 260 -20 109 -71
138 -354 207 -249 60 -343 100 -427 184 -91 89 -127 186 -128 339 0 95 22 178
64 245 61 97 189 182 321 216 93 23 110 24 270 21 112 -2 170 -8 228 -24z
m3027 13 c254 -48 438 -189 537 -412 89 -201 109 -530 47 -782 -35 -141 -127
-297 -226 -385 -61 -53 -206 -128 -293 -150 -153 -40 -379 -35 -527 11 -124
39 -202 86 -293 178 -137 138 -203 301 -227 553 -17 184 6 376 63 533 52 142
173 289 299 363 69 40 189 82 274 96 85 14 258 12 346 -5z m-1170 -149 l0
-145 -250 0 -250 0 0 -720 0 -720 -170 0 -170 0 0 720 0 720 -250 0 -250 0 0
138 c0 76 3 142 7 145 3 4 305 7 670 7 l663 0 0 -145z m3054 117 c191 -53 302
-177 326 -366 27 -212 -54 -366 -237 -453 -40 -20 -73 -40 -73 -47 0 -6 16
-20 36 -31 48 -26 98 -83 134 -155 17 -33 75 -193 130 -355 l99 -295 -177 0
-177 0 -85 262 c-115 357 -130 387 -215 431 -33 17 -63 21 -182 25 l-143 5 0
-362 0 -361 -170 0 -170 0 0 866 0 866 413 -4 c385 -4 417 -6 491 -26z m1856
-117 l0 -145 -400 0 -400 0 0 -200 0 -200 350 0 350 0 0 -140 0 -140 -350 0
-350 0 0 -235 0 -235 410 0 410 0 0 -145 0 -145 -580 0 -580 0 0 865 0 865
570 0 570 0 0 -145z"/>
<path d="M1972 6953 c-12 -24 -212 -638 -212 -652 0 -8 71 -11 230 -11 l230 0
-6 24 c-20 83 -214 651 -222 654 -6 2 -15 -5 -20 -15z"/>
<path d="M8217 6963 c-6 -10 -217 -658 -217 -667 0 -3 104 -6 230 -6 178 0
230 3 229 13 -1 30 -215 661 -226 664 -6 2 -13 0 -16 -4z"/>
<path d="M5149 4762 c-136 -45 -219 -141 -266 -307 -23 -80 -29 -371 -9 -474
41 -220 159 -342 359 -373 196 -30 375 50 452 202 52 103 68 189 68 375 1 186
-12 273 -57 370 -35 77 -106 149 -185 188 -62 30 -73 32 -186 34 -95 2 -132
-1 -176 -15z"/>
<path d="M6810 4549 l0 -230 203 3 c188 3 205 5 250 26 87 43 130 170 97 288
-17 59 -72 118 -125 133 -23 6 -123 11 -232 11 l-193 0 0 -231z"/>
</g>
</svg>
